<svg width="24" height="24" viewBox="0 0 24 24" fill="none" xmlns="http://www.w3.org/2000/svg">
  <path d="M7 4V2C7 1.45 7.45 1 8 1H16C16.55 1 17 1.45 17 2V4H20C20.55 4 21 4.45 21 5S20.55 6 20 6H19V19C19 20.1 18.1 21 17 21H7C5.9 21 5 20.1 5 19V6H4C3.45 6 3 5.55 3 5S3.45 4 4 4H7Z" fill="url(#groceriesGradient)"/>
  <path d="M9 8V18H11V8H9ZM13 8V18H15V8H13Z" fill="url(#groceriesGradient2)"/>
  <defs>
    <linearGradient id="groceriesGradient" x1="0%" y1="0%" x2="100%" y2="100%">
      <stop offset="0%" style="stop-color:#22c55e;stop-opacity:1" />
      <stop offset="100%" style="stop-color:#16a34a;stop-opacity:1" />
    </linearGradient>
    <linearGradient id="groceriesGradient2" x1="0%" y1="0%" x2="100%" y2="100%">
      <stop offset="0%" style="stop-color:#34d399;stop-opacity:1" />
      <stop offset="100%" style="stop-color:#22c55e;stop-opacity:1" />
    </linearGradient>
  </defs>
</svg>
