<svg width="24" height="24" viewBox="0 0 24 24" fill="none" xmlns="http://www.w3.org/2000/svg">
  <path d="M12 2L13.09 8.26L20 9L13.09 9.74L12 16L10.91 9.74L4 9L10.91 8.26L12 2Z" fill="url(#organicGradient)"/>
  <path d="M12 6C15.31 6 18 8.69 18 12C18 15.31 15.31 18 12 18C8.69 18 6 15.31 6 12C6 8.69 8.69 6 12 6Z" stroke="url(#organicGradient2)" stroke-width="2" fill="none"/>
  <path d="M9 12L11 14L15 10" stroke="url(#organicGradient2)" stroke-width="2" stroke-linecap="round" stroke-linejoin="round"/>
  <defs>
    <linearGradient id="organicGradient" x1="0%" y1="0%" x2="100%" y2="100%">
      <stop offset="0%" style="stop-color:#22c55e;stop-opacity:1" />
      <stop offset="100%" style="stop-color:#16a34a;stop-opacity:1" />
    </linearGradient>
    <linearGradient id="organicGradient2" x1="0%" y1="0%" x2="100%" y2="100%">
      <stop offset="0%" style="stop-color:#34d399;stop-opacity:1" />
      <stop offset="100%" style="stop-color:#22c55e;stop-opacity:1" />
    </linearGradient>
  </defs>
</svg>
