<svg width="24" height="24" viewBox="0 0 24 24" fill="none" xmlns="http://www.w3.org/2000/svg">
  <defs>
    <linearGradient id="shoppingBagGradient" x1="0%" y1="0%" x2="100%" y2="100%">
      <stop offset="0%" style="stop-color:#22c55e;stop-opacity:1" />
      <stop offset="100%" style="stop-color:#16a34a;stop-opacity:1" />
    </linearGradient>
  </defs>
  <path d="M19 7H16V6C16 3.79086 14.2091 2 12 2C9.79086 2 8 3.79086 8 6V7H5C4.44772 7 4 7.44772 4 8V19C4 20.1046 4.89543 21 6 21H18C19.1046 21 20 20.1046 20 19V8C20 7.44772 19.5523 7 19 7Z" stroke="url(#shoppingBagGradient)" stroke-width="2" stroke-linecap="round" stroke-linejoin="round"/>
  <path d="M8 7V6C8 3.79086 9.79086 2 12 2C14.2091 2 16 3.79086 16 6V7" stroke="url(#shoppingBagGradient)" stroke-width="2" stroke-linecap="round" stroke-linejoin="round"/>
  <path d="M8 11V12C8 14.2091 9.79086 16 12 16C14.2091 16 16 14.2091 16 12V11" stroke="url(#shoppingBagGradient)" stroke-width="2" stroke-linecap="round" stroke-linejoin="round"/>
</svg>
