<svg width="20" height="20" viewBox="0 0 24 24" fill="none" xmlns="http://www.w3.org/2000/svg">
  <defs>
    <linearGradient id="sparklesGradient" x1="0%" y1="0%" x2="100%" y2="100%">
      <stop offset="0%" style="stop-color:#f59e0b;stop-opacity:1" />
      <stop offset="100%" style="stop-color:#d97706;stop-opacity:1" />
    </linearGradient>
  </defs>
  <path d="M12 3L13.09 8.26L18 9L13.09 9.74L12 15L10.91 9.74L6 9L10.91 8.26L12 3Z" fill="url(#sparklesGradient)"/>
  <path d="M19 3L19.5 5.5L22 6L19.5 6.5L19 9L18.5 6.5L16 6L18.5 5.5L19 3Z" fill="url(#sparklesGradient)"/>
  <path d="M5 15L5.5 17.5L8 18L5.5 18.5L5 21L4.5 18.5L2 18L4.5 17.5L5 15Z" fill="url(#sparklesGradient)"/>
</svg>
