<svg width="24" height="24" viewBox="0 0 24 24" fill="none" xmlns="http://www.w3.org/2000/svg">
  <path d="M12 2C13.1 2 14 2.9 14 4V6H16C17.1 6 18 6.9 18 8V10C19.1 10 20 10.9 20 12V20C20 21.1 19.1 22 18 22H6C4.9 22 4 21.1 4 20V12C4 10.9 4.9 10 6 10V8C6 6.9 6.9 6 8 6H10V4C10 2.9 10.9 2 12 2Z" fill="url(#vegetableGradient)"/>
  <path d="M8 8V10H16V8H8Z" fill="url(#vegetableGradient2)"/>
  <defs>
    <linearGradient id="vegetableGradient" x1="0%" y1="0%" x2="100%" y2="100%">
      <stop offset="0%" style="stop-color:#22c55e;stop-opacity:1" />
      <stop offset="100%" style="stop-color:#16a34a;stop-opacity:1" />
    </linearGradient>
    <linearGradient id="vegetableGradient2" x1="0%" y1="0%" x2="100%" y2="100%">
      <stop offset="0%" style="stop-color:#34d399;stop-opacity:1" />
      <stop offset="100%" style="stop-color:#22c55e;stop-opacity:1" />
    </linearGradient>
  </defs>
</svg>
